<svg width="24" height="24" viewBox="0 0 24 24" fill="none" xmlns="http://www.w3.org/2000/svg">
<path d="M9.5 23C12.5376 23 15 20.5376 15 17.5C15 14.4624 12.5376 12 9.5 12C6.46243 12 4 14.4624 4 17.5C4 20.5376 6.46243 23 9.5 23Z" fill="#000018"/>
<rect x="12" y="4" width="3" height="13" fill="#000018"/>
<path d="M12 3.00002C12 1.89544 12.8954 1.00001 14 1.00002L18 1.00005C19.1046 1.00006 20 1.89549 20 3.00005V5C20 6.10457 19.1046 7 18 7H14C12.8954 7 12 6.10457 12 5V3.00002Z" fill="#000018"/>
</svg>
