<svg width="24" height="24" viewBox="0 0 24 24" fill="none" xmlns="http://www.w3.org/2000/svg">
<path d="M11.4188 3.18634C12.0806 2.71358 13 3.18671 13 4.00008V20.1137C13 20.9271 12.0806 21.4002 11.4188 20.9274L6 17.0569H3C1.89543 17.0569 1 16.1615 1 15.0569V9.05689C1 7.95232 1.89543 7.05689 3 7.05689H6L11.4188 3.18634Z" fill="white"/>
<path d="M15.9942 16.9623C17.235 15.6992 18.0004 13.9675 18.0004 12.057C18.0004 10.1384 17.2286 8.40017 15.9785 7.13574" stroke="white" stroke-width="2" stroke-linecap="round" stroke-linejoin="round"/>
<path d="M18.7783 4.27881C20.7689 6.26942 22.0001 9.01942 22.0001 12.057C22.0001 15.0945 20.7689 17.8445 18.7783 19.8352" stroke="white" stroke-width="2" stroke-linecap="round" stroke-linejoin="round"/>
</svg>
